<?xml version="1.0" encoding="UTF-8"?>
<svg version="1.1" xmlns="http://www.w3.org/2000/svg" width="360" height="360">
<path d="M0 0 C118.8 0 237.6 0 360 0 C360 118.8 360 237.6 360 360 C241.2 360 122.4 360 0 360 C0 241.2 0 122.4 0 0 Z " fill="#161513" transform="translate(0,0)"/>
<path d="M0 0 C7.83275251 4.33881684 15.46891973 9.02276664 23.12988281 13.65600586 C31.577687 18.75759358 40.09485283 23.72461451 48.80615234 28.36523438 C50.45056502 29.25212917 52.0646724 30.19457865 53.67578125 31.140625 C57.76434908 32.80039543 60.35540028 32.24343418 64.37304688 30.54882812 C66.38074574 29.6010312 68.34654072 28.5939769 70.3125 27.5625 C71.02494873 27.19833984 71.73739746 26.83417969 72.47143555 26.45898438 C75.37618336 24.97312587 78.26935161 23.46590698 81.16015625 21.953125 C87.49446563 18.69101153 94.0255545 15.9595276 100.61254883 13.25390625 C104.37268794 11.70061115 108.05847058 10.098873 111.6796875 8.2421875 C115.36967163 6.35962668 119.1624244 4.88608786 123.0625 3.5 C128.03356597 1.69920297 132.87906143 -0.23867493 137.68041992 -2.45361328 C158.9707118 -12.2273101 186.60662413 -13.12288611 208.875 -5.1875 C225.42909139 1.31473266 237.35126374 14.90419949 245.3515625 30.51171875 C252.99841301 48.19814397 253.91173199 66.2714619 246.81494141 84.20117188 C240.80589182 98.14482285 233.76091894 108.73263379 219.515625 114.55859375 C193.62762018 123.3398536 164.54476544 113.64102789 140.98535156 102.3503418 C127.55705637 95.71416353 114.72305077 88.10385495 101.921875 80.34277344 C98.6242443 78.34981582 95.31471596 76.37844903 92 74.4140625 C75.07716262 64.36371742 75.07716262 64.36371742 67.765625 59.484375 C66.85417725 58.87682373 65.94272949 58.26927246 65.00366211 57.64331055 C63.30280278 56.4991363 61.61023563 55.34249571 59.92797852 54.17114258 C54.26197079 50.31659245 54.26197079 50.31659245 47.5625 50.3125 C44.48556361 51.31084547 41.535147 52.54038969 38.5625 53.8125 C36.77443106 54.54799302 34.98532925 55.28097901 33.1953125 56.01171875 C32.27008789 56.39118652 31.34486328 56.7706543 30.39160156 57.16162109 C5.0077326 67.48778249 -21.08749537 74.65062438 -47.75 64.0625 C-62.52656054 57.27053784 -74.5804133 49.47564113 -81.4375 34.3125 C-81.911875 33.28253906 -82.38625 32.25257813 -82.875 31.19140625 C-85.19342913 25.91566269 -87.10216087 21.12504492 -87.4375 15.3125 C-87.540625 14.075 -87.64375 12.8375 -87.75 11.5625 C-87.59326674 3.4750638 -84.14450233 -4.16727751 -78.51171875 -9.89453125 C-56.18548681 -29.1934775 -22.22855805 -11.53059141 0 0 Z " fill="#7B77FC" transform="translate(94.4375,133.6875)"/>
<path d="M0 0 C7.84493011 4.34556241 15.48921697 9.04171988 23.16723633 13.67358398 C38.80530771 23.09870774 54.66741598 31.4419331 71.20117188 39.19482422 C74.01119329 40.52487778 76.79128891 41.90364604 79.5625 43.3125 C79.5625 45.2925 79.5625 47.2725 79.5625 49.3125 C74.61603568 48.87604727 72.25367706 46.45392728 68.5625 43.3125 C66.37119466 42.61670546 66.37119466 42.61670546 64.5625 42.3125 C64.2325 41.6525 63.9025 40.9925 63.5625 40.3125 C62.82 40.02375 62.0775 39.735 61.3125 39.4375 C58.22471961 38.17431712 56.08361915 36.47345927 53.5625 34.3125 C53.5625 35.9625 53.5625 37.6125 53.5625 39.3125 C52.9025 39.3125 52.2425 39.3125 51.5625 39.3125 C53.08805966 44.12372847 53.08805966 44.12372847 56.5625 47.3125 C56.2325 48.3025 55.9025 49.2925 55.5625 50.3125 C53.86480469 50.20421875 53.86480469 50.20421875 52.1328125 50.09375 C47.02344413 50.10271774 43.06379172 51.79134521 38.4375 53.8125 C36.66771973 54.54811157 34.89684425 55.28109262 33.125 56.01171875 C31.75601563 56.58092041 31.75601563 56.58092041 30.359375 57.16162109 C5.05487351 67.57410539 -21.15701519 74.6230169 -47.75 64.0625 C-62.52656054 57.27053784 -74.5804133 49.47564113 -81.4375 34.3125 C-81.911875 33.28253906 -82.38625 32.25257813 -82.875 31.19140625 C-85.19342913 25.91566269 -87.10216087 21.12504492 -87.4375 15.3125 C-87.540625 14.075 -87.64375 12.8375 -87.75 11.5625 C-87.59326674 3.4750638 -84.14450233 -4.16727751 -78.51171875 -9.89453125 C-56.18548681 -29.1934775 -22.22855805 -11.53059141 0 0 Z " fill="#E9B9FB" transform="translate(94.4375,133.6875)"/>
<path d="M0 0 C1.69286133 -0.0299707 1.69286133 -0.0299707 3.41992188 -0.06054688 C16.28443555 -0.05314922 26.91344324 3.66615095 36.4375 12.4375 C42.28411133 19.65369154 44.37234087 25.12859159 43.4375 34.4375 C41.11768324 39.34480469 38.18796632 41.8795566 33.4375 44.4375 C16.488243 49.67739307 -2.03044135 46.79127335 -18.5625 41.4375 C-19.28985352 41.20224609 -20.01720703 40.96699219 -20.76660156 40.72460938 C-25.00692379 39.3246667 -29.20062783 37.81656644 -33.38232422 36.25097656 C-35.68879417 35.39037658 -38.00171272 34.54915345 -40.31640625 33.7109375 C-69.05664121 23.27304208 -69.05664121 23.27304208 -74.5625 19.4375 C-74.5625 18.7775 -74.5625 18.1175 -74.5625 17.4375 C-62.7907281 13.54398019 -50.97541252 9.90601208 -39 6.6875 C-37.95602051 6.40640381 -36.91204102 6.12530762 -35.83642578 5.83569336 C-32.74985852 5.01662404 -29.65731297 4.22477912 -26.5625 3.4375 C-25.50957764 3.15575928 -24.45665527 2.87401855 -23.37182617 2.58374023 C-15.49788385 0.58543136 -8.11001046 -0.05112328 0 0 Z " fill="#161515" transform="translate(241.5625,154.5625)"/>
<path d="M0 0 C2.46800047 1.15173355 4.04783565 2.04783565 6 4 C7.64991582 4.70710678 9.31562256 5.37943989 11 6 C11 6.66 11 7.32 11 8 C13.97 8.495 13.97 8.495 17 9 C17.33 9.99 17.66 10.98 18 12 C20.55170871 13.5838192 23.07606119 14.37344168 26 15 C26 13.02 26 11.04 26 9 C26.71800781 9.27972656 27.43601563 9.55945313 28.17578125 9.84765625 C37.23846522 13.35761231 46.33856683 16.75876544 55.47216797 20.07958984 C57.15979752 20.69407347 58.84632322 21.31159711 60.53173828 21.93212891 C75.32423278 27.36639726 90.11814245 32.31395864 106 33 C106 33.33 106 33.66 106 34 C101.545 34.495 101.545 34.495 97 35 C96.67 36.32 96.34 37.64 96 39 C96.66 39 97.32 39 98 39 C98.33 37.68 98.66 36.36 99 35 C99.99 35 100.98 35 102 35 C102 38.63 102 42.26 102 46 C102.804375 46.165 103.60875 46.33 104.4375 46.5 C111.45729522 49.45570325 116.74623608 55.58703111 122 61 C122.66 61.66 123.32 62.32 124 63 C124 63.99 124 64.98 124 66 C117.9222608 65.44747825 112.72871038 64.04874219 107 62 C104.68258394 61.24367289 102.36307899 60.49410743 100.04296875 59.74609375 C98 59 98 59 95.89453125 57.94140625 C93.30280338 56.65355797 91.85247016 56.42950597 89 57 C86.64677204 59.90412546 86.64677204 59.90412546 85 63 C85.66 63.33 86.32 63.66 87 64 C87 64.66 87 65.32 87 66 C87.99 66 88.98 66 90 66 C90 66.66 90 67.32 90 68 C84.96517136 66.49270804 80.50257618 64.37947165 75.875 61.9375 C75.06949707 61.51339844 74.26399414 61.08929688 73.43408203 60.65234375 C62.65145604 54.8684058 52.28203186 48.37157449 41.86129761 41.96784973 C37.28040713 39.15808633 32.6530368 36.43786704 28 33.75 C18.43398629 28.20270134 9.22386168 22.09364393 0 16 C0.99 15.01 1.98 14.02 3 13 C2.360625 12.79375 1.72125 12.5875 1.0625 12.375 C-1 11 -1 11 -1.75 7.875 C-1.8325 6.92625 -1.915 5.9775 -2 5 C-1.34 5 -0.68 5 0 5 C0 3.35 0 1.7 0 0 Z " fill="#CD88FC" transform="translate(148,168)"/>
<path d="M0 0 C1.62580966 0.11398665 3.25067157 0.24155659 4.875 0.375 C5.77992188 0.44460937 6.68484375 0.51421875 7.6171875 0.5859375 C10 1 10 1 12 3 C13.5824587 3.8738533 15.19032496 4.70228873 16.8125 5.5 C17.66457031 5.9228125 18.51664063 6.345625 19.39453125 6.78125 C36.93332353 14.98530276 59.94226838 17.70229818 79 14 C79 14.66 79 15.32 79 16 C79.66 16 80.32 16 81 16 C81.33 15.01 81.66 14.02 82 13 C82.66 13 83.32 13 84 13 C82.92435672 15.83578683 82.22387589 16.86797063 79.5625 18.4375 C76.81834656 19.80459635 76.81834656 19.80459635 75.6875 22.5625 C73.58713044 25.59636714 71.79961589 25.83421876 68.29858398 26.61401367 C46.02180058 30.3548097 20.64907335 23.40989554 1 13 C1 12.01 1 11.02 1 10 C0.01 10 -0.98 10 -2 10 C-2 9.34 -2 8.68 -2 8 C-2.99 7.67 -3.98 7.34 -5 7 C-3.35 4.69 -1.7 2.38 0 0 Z " fill="#6A6DFA" transform="translate(237,224)"/>
<path d="M0 0 C3.68155952 1.03838858 6.75361683 2.40289807 10 4.375 C18.16105836 9.02666564 27.55113391 11.35728545 36.9140625 11.62890625 C39.57500059 12.10229411 40.92548024 13.30965056 43 15 C44.64797236 15.71162443 46.31165408 16.39031953 48 17 C48 17.66 48 18.32 48 19 C48.83144531 19.24878906 49.66289062 19.49757812 50.51953125 19.75390625 C54.46081294 21.16498241 58.01031441 22.95523873 61.6875 24.9375 C62.35072266 25.28490234 63.01394531 25.63230469 63.69726562 25.99023438 C66.88517771 27.69494869 69.58609058 29.29545265 72 32 C72.66 32.33 73.32 32.66 74 33 C73.34 34.32 72.68 35.64 72 37 C71.34 37 70.68 37 70 37 C70 38.98 70 40.96 70 43 C70.99 43 71.98 43 73 43 C73 43.66 73 44.32 73 45 C73.99 45 74.98 45 76 45 C76 45.66 76 46.32 76 47 C70.96517136 45.49270804 66.50257618 43.37947165 61.875 40.9375 C61.06949707 40.51339844 60.26399414 40.08929688 59.43408203 39.65234375 C48.67076485 33.87876329 38.31883795 27.39469898 27.91567993 21.00410461 C22.42836452 17.6380879 16.88973242 14.36464302 11.32373047 11.13085938 C6.82421843 8.51110567 2.40200819 5.78036703 -2 3 C-1.34 2.67 -0.68 2.34 0 2 C0 1.34 0 0.68 0 0 Z " fill="#BE65F6" transform="translate(162,189)"/>
<path d="M0 0 C2.77967331 1.30916012 5.36311654 2.75761433 7.9609375 4.39453125 C6.9609375 6.39453125 6.9609375 6.39453125 5.17016602 7.01635742 C-2.27023845 8.52022858 -9.52579527 8.72719029 -17.1015625 8.70703125 C-18.92397461 8.73120117 -18.92397461 8.73120117 -20.78320312 8.75585938 C-27.78002031 8.75965169 -33.60247568 8.18922306 -40.0390625 5.39453125 C-40.780354 5.08362549 -41.52164551 4.77271973 -42.28540039 4.45239258 C-47.19453749 2.31993568 -50.06583932 -0.14563398 -53.0390625 -4.60546875 C-53.0390625 -5.92546875 -53.0390625 -7.24546875 -53.0390625 -8.60546875 C-36.94897387 -15.80825211 -15.18655718 -6.30746025 0 0 Z " fill="#181616" transform="translate(122.0390625,167.60546875)"/>
<path d="M0 0 C0.88300781 0.20496094 1.76601562 0.40992188 2.67578125 0.62109375 C10.12257829 2.2928237 17.37887379 3.54895375 25 4 C25 4.33 25 4.66 25 5 C20.545 5.495 20.545 5.495 16 6 C15.67 7.32 15.34 8.64 15 10 C15.66 10 16.32 10 17 10 C17.33 8.68 17.66 7.36 18 6 C18.99 6 19.98 6 21 6 C21 9.63 21 13.26 21 17 C21.804375 17.165 22.60875 17.33 23.4375 17.5 C30.45729522 20.45570325 35.74623608 26.58703111 41 32 C41.66 32.66 42.32 33.32 43 34 C43 34.99 43 35.98 43 37 C36.9222608 36.44747825 31.72871038 35.04874219 26 33 C23.68258394 32.24367289 21.36307899 31.49410743 19.04296875 30.74609375 C17 30 17 30 14.89453125 28.94140625 C12.30280338 27.65355797 10.85247016 27.42950597 8 28 C5.71760829 30.92321965 5.71760829 30.92321965 4 34 C3.67 34 3.34 34 3 34 C2.75 31.75 2.75 31.75 3 29 C5 26.6875 5 26.6875 7 25 C6.195625 24.7525 5.39125 24.505 4.5625 24.25 C2 23 2 23 0.9375 21.1875 C1.03022626 17.9420808 2.99003445 16.44964552 5 14 C4.67 13.01 4.34 12.02 4 11 C4.59793673 8.64811553 5.25881795 6.31074405 6 4 C4.68 4 3.36 4 2 4 C2 3.34 2 2.68 2 2 C1.34 2 0.68 2 0 2 C0 1.34 0 0.68 0 0 Z " fill="#A78BFC" transform="translate(229,197)"/>
<path d="M0 0 C-0.66 0.99 -1.32 1.98 -2 3 C-1.07380859 2.74863281 -1.07380859 2.74863281 -0.12890625 2.4921875 C6.18015091 0.97494088 10.81296137 1.05721009 17 3 C17 2.34 17 1.68 17 1 C19.475 1.495 19.475 1.495 22 2 C18.7063461 3.80764502 15.41425244 4.83124148 11.80078125 5.83984375 C10.59099609 6.18080078 9.38121094 6.52175781 8.13476562 6.87304688 C6.87341797 7.22431641 5.61207031 7.57558594 4.3125 7.9375 C-5.50625865 10.65303379 -5.50625865 10.65303379 -15.20703125 13.75390625 C-19 15 -19 15 -22 15 C-22.33 15.66 -22.66 16.32 -23 17 C-27.29 15.02 -31.58 13.04 -36 11 C-28.97337482 5.73003111 -20.38926879 3.73768957 -12.0625 1.1875 C-11.32878174 0.95627441 -10.59506348 0.72504883 -9.83911133 0.48681641 C-6.12850401 -0.62007372 -3.69268268 -1.15641824 0 0 Z " fill="#556EFD" transform="translate(189,157)"/>
<path d="M0 0 C-5.37737274 2.84087617 -10.73623795 5.0830994 -16.484375 7.0703125 C-18.76446795 7.91295555 -20.83805035 8.89757726 -23 10 C-28.93634073 12.49366694 -34.96278689 14.76399515 -41 17 C-40.67 17.33 -40.34 17.66 -40 18 C-34.97500306 17.71530797 -34.97500306 17.71530797 -31 15 C-28.34462628 14.43479997 -25.70855287 14.26211802 -23 14 C-23.33 14.99 -23.66 15.98 -24 17 C-26.06274414 17.90380859 -26.06274414 17.90380859 -28.78515625 18.6484375 C-29.78353516 18.92921143 -30.78191406 19.20998535 -31.81054688 19.49926758 C-32.88369141 19.78825928 -33.95683594 20.07725098 -35.0625 20.375 C-37.26207893 20.98959782 -39.46129746 21.60548691 -41.66015625 22.22265625 C-43.28268311 22.67342529 -43.28268311 22.67342529 -44.93798828 23.13330078 C-50.18579938 24.61868823 -55.37056023 26.28900674 -60.5625 27.95703125 C-64.35166569 29.10669857 -68.15594514 30.05089968 -72 31 C-74.00705243 31.645124 -76.01017187 32.30356015 -78 33 C-75.30277709 29.79089537 -71.81905345 28.18392499 -68.125 26.375 C-67.43535156 26.03307617 -66.74570313 25.69115234 -66.03515625 25.33886719 C-59.25068926 22.02740116 -52.32357677 19.05795396 -45.35986328 16.14599609 C-41.46384841 14.51276157 -37.62731194 12.84995632 -33.8671875 10.921875 C-30.05057952 8.97431338 -26.15234582 7.45168319 -22.125 6 C-16.6782416 4.01227535 -11.3143868 1.9286165 -6.015625 -0.43359375 C-3.6397593 -1.10123043 -2.30543088 -0.79443902 0 0 Z " fill="#ACA1F0" transform="translate(240,131)"/>
<path d="M0 0 C2.46800047 1.15173355 4.04783565 2.04783565 6 4 C7.64991582 4.70710678 9.31562256 5.37943989 11 6 C11 6.66 11 7.32 11 8 C13.97 8.495 13.97 8.495 17 9 C16.38125 9.53625 15.7625 10.0725 15.125 10.625 C12.7217098 13.31103023 11.93977847 15.55414562 11 19 C11.66 19.33 12.32 19.66 13 20 C12.67 20.99 12.34 21.98 12 23 C10.18387512 22.04855402 8.37218919 21.08863067 6.5625 20.125 C5.55316406 19.59132812 4.54382813 19.05765625 3.50390625 18.5078125 C1 17 1 17 0 15 C0.66 15 1.32 15 2 15 C2.33 14.34 2.66 13.68 3 13 C2.360625 12.79375 1.72125 12.5875 1.0625 12.375 C-1 11 -1 11 -1.75 7.875 C-1.8325 6.92625 -1.915 5.9775 -2 5 C-1.34 5 -0.68 5 0 5 C0 3.35 0 1.7 0 0 Z " fill="#D19CFE" transform="translate(148,168)"/>
<path d="M0 0 C-1.12923376 3.04893116 -2.6343658 4.64541574 -5.125 6.625 C-6.07375 7.40875 -7.0225 8.1925 -8 9 C-8 9.66 -8 10.32 -8 11 C-8.99 11 -9.98 11 -11 11 C-11.33 11.66 -11.66 12.32 -12 13 C-16.29 11.02 -20.58 9.04 -25 7 C-21.09009237 4.06756928 -19.24601714 3.35521576 -14.625 2.375 C-13.52414063 2.13523438 -12.42328125 1.89546875 -11.2890625 1.6484375 C-2.92771084 0 -2.92771084 0 0 0 Z " fill="#3665F2" transform="translate(178,161)"/>
<path d="M0 0 C13.77423908 5.00007282 24.95941673 12.59169248 33 25 C33.7734375 28.3671875 33.7734375 28.3671875 34 31 C33.34 31 32.68 31 32 31 C28.88002198 27.69649386 28 26.67590167 28 22 C27.01 21.67 26.02 21.34 25 21 C25 20.34 25 19.68 25 19 C23.68 19 22.36 19 21 19 C20.443125 17.865625 19.88625 16.73125 19.3125 15.5625 C17.5777124 12.44531169 17.5777124 12.44531169 14.25 11.0625 C13.13625 11.0315625 13.13625 11.0315625 12 11 C12 10.34 12 9.68 12 9 C11.071875 8.690625 10.14375 8.38125 9.1875 8.0625 C7.125 7.375 5.0625 6.6875 3 6 C2.67 5.34 2.34 4.68 2 4 C1.01 3.34 0.02 2.68 -1 2 C-0.67 1.34 -0.34 0.68 0 0 Z " fill="#AD8EF1" transform="translate(300,128)"/>
<path d="M0 0 C7.83098592 1.95774648 7.83098592 1.95774648 11 5 C11 5.66 11 6.32 11 7 C9.41701974 7.4803318 7.83360022 7.95921612 6.25 8.4375 C5.36828125 8.70433594 4.4865625 8.97117188 3.578125 9.24609375 C1.39434165 9.88468494 -0.78835498 10.46775833 -3 11 C-3.33 10.34 -3.66 9.68 -4 9 C-9.94 9.495 -9.94 9.495 -16 10 C-16.33 9.34 -16.66 8.68 -17 8 C-12.545 7.505 -12.545 7.505 -8 7 C-8 6.01 -8 5.02 -8 4 C-7.34 4 -6.68 4 -6 4 C-6 4.66 -6 5.32 -6 6 C-3.69 5.01 -1.38 4.02 1 3 C0.67 2.01 0.34 1.02 0 0 Z " fill="#B694FE" transform="translate(136,176)"/>
<path d="M0 0 C5.02692063 0.45699278 8.14896261 2.99241748 12 6 C11.67 7.98 11.34 9.96 11 12 C5.71862571 11.48474397 2.42778844 9.74522883 -2 7 C-1.125 2.25 -1.125 2.25 0 0 Z " fill="#8464FD" transform="translate(163,179)"/>
<path d="M0 0 C0 0.99 0 1.98 0 3 C-3.77034766 4.10582949 -7.54136772 5.20934947 -11.3125 6.3125 C-12.36501953 6.62123047 -13.41753906 6.92996094 -14.50195312 7.24804688 C-21.31536205 9.23965871 -28.14454672 11.15827466 -35 13 C-34.67 12.01 -34.34 11.02 -34 10 C-32.35 9.67 -30.7 9.34 -29 9 C-29 8.34 -29 7.68 -29 7 C-23.29362664 3.94775379 -18.2296225 3.55302364 -11.79296875 3.30859375 C-8.86260441 3.27938737 -8.86260441 3.27938737 -7 1 C-4.67724823 0.59952556 -2.34260643 0.2602896 0 0 Z " fill="#A38DFE" transform="translate(216,145)"/>
<path d="M0 0 C4.71294113 1.32929109 8.59628393 3.40802073 12.80859375 5.82421875 C15.44876402 7.24078069 18.11997003 8.18768386 21 9 C21 10.32 21 11.64 21 13 C11.83803624 12.17273465 5.43137769 8.00860879 -2 3 C-1.34 2.67 -0.68 2.34 0 2 C0 1.34 0 0.68 0 0 Z " fill="#C469EF" transform="translate(162,189)"/>
<path d="M0 0 C3.43595166 1.52708963 6.11912454 3.59927045 9 6 C8.125 10.75 8.125 10.75 7 13 C4.1875 13.25 4.1875 13.25 1 13 C-0.875 11.25 -0.875 11.25 -2 9 C-2 7.68 -2 6.36 -2 5 C-1.34 5 -0.68 5 0 5 C0 3.35 0 1.7 0 0 Z " fill="#B583FD" transform="translate(148,168)"/>
<path d="M0 0 C0.66 0 1.32 0 2 0 C0.92435672 2.83578683 0.22387589 3.86797063 -2.4375 5.4375 C-5.18165344 6.80459635 -5.18165344 6.80459635 -6.3125 9.5625 C-8.40107587 12.57933181 -10.16016529 12.8465503 -13.64428711 13.62719727 C-17.80353005 14.28541718 -21.9236734 14.24733898 -26.125 14.1875 C-27.42630859 14.1865332 -27.42630859 14.1865332 -28.75390625 14.18554688 C-33.27593373 14.15457408 -37.5513525 13.91160809 -42 13 C-42 12.67 -42 12.34 -42 12 C-40.71367676 11.96241577 -40.71367676 11.96241577 -39.40136719 11.92407227 C-36.2106563 11.82876588 -33.02009781 11.72954249 -29.82958984 11.62768555 C-28.45040622 11.5844545 -27.07117315 11.54277134 -25.69189453 11.50268555 C-23.70593062 11.44469597 -21.72014731 11.38062277 -19.734375 11.31640625 C-17.94338379 11.26141968 -17.94338379 11.26141968 -16.11621094 11.20532227 C-13.56354646 11.03713119 -11.40036565 10.86007167 -9 10 C-7.85790183 8.21771064 -7.85790183 8.21771064 -7 6 C-6.01120795 4.32665961 -5.01351664 2.65848177 -4 1 C-3.505 1.99 -3.505 1.99 -3 3 C-2.34 3 -1.68 3 -1 3 C-0.67 2.01 -0.34 1.02 0 0 Z " fill="#445DE7" transform="translate(319,237)"/>
<path d="M0 0 C-5.37737274 2.84087617 -10.73623795 5.0830994 -16.484375 7.0703125 C-18.76663484 7.91375635 -20.84085671 8.8864261 -23 10 C-24.65536479 10.77462583 -26.32278754 11.52388973 -28 12.25 C-28.845625 12.62640625 -29.69125 13.0028125 -30.5625 13.390625 C-33.55969579 14.13992395 -34.38909107 13.46691131 -37 12 C-36.17798096 11.67725098 -35.35596191 11.35450195 -34.5090332 11.02197266 C-31.44322843 9.81816001 -28.37747947 8.61420542 -25.31176758 7.41015625 C-23.98789652 6.89024303 -22.66400359 6.37038549 -21.34008789 5.85058594 C-19.431094 5.10105994 -17.52218026 4.35133011 -15.61328125 3.6015625 C-14.46641846 3.15119629 -13.31955566 2.70083008 -12.13793945 2.23681641 C-10.15806739 1.45645137 -8.18739687 0.65191553 -6.23120117 -0.18603516 C-3.68078609 -1.11645248 -2.50845288 -0.92905662 0 0 Z " fill="#A387EB" transform="translate(240,131)"/>
<path d="M0 0 C0 -0.66 0 -1.32 0 -2 C2.475 -1.505 2.475 -1.505 5 -1 C1.60326697 0.85276347 -1.86904604 1.99049196 -5.5625 3.125 C-6.69816406 3.47820312 -7.83382812 3.83140625 -9.00390625 4.1953125 C-12 5 -12 5 -15 5 C-15 4.34 -15 3.68 -15 3 C-15.99 3 -16.98 3 -18 3 C-17 0 -17 0 -14.625 -1.3125 C-9.48337094 -2.28763655 -5.04549838 -1.16710817 0 0 Z " fill="#4156F5" transform="translate(206,160)"/>
<path d="M0 0 C-0.185625 0.61875 -0.37125 1.2375 -0.5625 1.875 C-1.23686176 4.04160178 -1.23686176 4.04160178 0 6 C-1.74468372 6.70088156 -3.49601161 7.38524009 -5.25 8.0625 C-6.22453125 8.44535156 -7.1990625 8.82820312 -8.203125 9.22265625 C-11.04007395 10.01113787 -12.29409552 10.02437812 -15 9 C-14.01 8.67 -13.02 8.34 -12 8 C-11.67 7.01 -11.34 6.02 -11 5 C-9.2578125 3.61328125 -9.2578125 3.61328125 -7.125 2.3125 C-6.42632812 1.87550781 -5.72765625 1.43851563 -5.0078125 0.98828125 C-3 0 -3 0 0 0 Z " fill="#6D74FE" transform="translate(184,161)"/>
<path d="M0 0 C4.455 1.98 4.455 1.98 9 4 C9 5.98 9 7.96 9 10 C5.62537285 9.45276317 3.91765 8.9451 1 7 C0.3125 3.375 0.3125 3.375 0 0 Z " fill="#DFADF9" transform="translate(165,173)"/>
<path d="M0 0 C0.763125 0.309375 1.52625 0.61875 2.3125 0.9375 C4.18789677 1.67893593 6.08684652 2.36228217 8 3 C8 3.99 8 4.98 8 6 C8.66 6.33 9.32 6.66 10 7 C9.67 7.99 9.34 8.98 9 10 C7.18387512 9.04855402 5.37218919 8.08863067 3.5625 7.125 C2.55316406 6.59132812 1.54382813 6.05765625 0.50390625 5.5078125 C-2 4 -2 4 -3 2 C-2.34 2 -1.68 2 -1 2 C-0.67 1.34 -0.34 0.68 0 0 Z " fill="#D095F0" transform="translate(151,181)"/>
<path d="M0 0 C2 1 4 2 6 3 C6 3.66 6 4.32 6 5 C4.41701974 5.4803318 2.83360022 5.95921612 1.25 6.4375 C-0.07257813 6.83775391 -0.07257813 6.83775391 -1.421875 7.24609375 C-3.60565835 7.88468494 -5.78835498 8.46775833 -8 9 C-8.33 8.01 -8.66 7.02 -9 6 C-7.68 5.67 -6.36 5.34 -5 5 C-5 4.34 -5 3.68 -5 3 C-3.02 3 -1.04 3 1 3 C0.67 2.01 0.34 1.02 0 0 Z " fill="#BF9DF2" transform="translate(141,178)"/>
<path d="M0 0 C1.98 0.99 3.96 1.98 6 3 C4.02 3.99 4.02 3.99 2 5 C2 4.34 2 3.68 2 3 C0.46859375 3.49113281 0.46859375 3.49113281 -1.09375 3.9921875 C-7.47219983 5.58679996 -13.97063899 5.21126188 -20.5 5.125 C-21.799375 5.11597656 -23.09875 5.10695312 -24.4375 5.09765625 C-27.62519299 5.07421733 -30.8124982 5.0414044 -34 5 C-34 4.67 -34 4.34 -34 4 C-33.35562988 3.98018066 -32.71125977 3.96036133 -32.04736328 3.93994141 C-29.07289417 3.84354411 -26.09902043 3.73433899 -23.125 3.625 C-22.11179687 3.5940625 -21.09859375 3.563125 -20.0546875 3.53125 C-9.37825353 3.69919522 -9.37825353 3.69919522 0 0 Z " fill="#7564B6" transform="translate(130,172)"/>
<path d="M0 0 C0.33 0.66 0.66 1.32 1 2 C0.09232898 3.44319692 -0.82656106 4.87934106 -1.75 6.3125 C-2.26046875 7.11300781 -2.7709375 7.91351563 -3.296875 8.73828125 C-5.03566246 11.0473591 -6.49690692 12.55628686 -9 14 C-9.99 13.67 -10.98 13.34 -12 13 C-11.34 13 -10.68 13 -10 13 C-9.938125 12.236875 -9.87625 11.47375 -9.8125 10.6875 C-8.73016851 7.10748045 -7.20015971 6.78613565 -4 5 C-1.72462308 2.42816686 -1.72462308 2.42816686 0 0 Z " fill="#8B81EC" transform="translate(333,229)"/>
<path d="M0 0 C0 0.33 0 0.66 0 1 C-1.8253125 1.185625 -1.8253125 1.185625 -3.6875 1.375 C-6.19022652 1.6807432 -8.03636202 2.01531032 -10.375 3 C-14.45016905 4.55244535 -18.67485432 4.68086304 -23 5 C-22.67 4.01 -22.34 3.02 -22 2 C-14.69210989 -0.3141652 -7.61082728 -0.21173863 0 0 Z " fill="#C09DF1" transform="translate(264,125)"/>
<path d="M0 0 C0 0.99 0 1.98 0 3 C-3.45494106 4.03256737 -6.91440991 5.04904147 -10.375 6.0625 C-11.85226563 6.50432617 -11.85226563 6.50432617 -13.359375 6.95507812 C-14.30039063 7.22900391 -15.24140625 7.50292969 -16.2109375 7.78515625 C-17.08024902 8.04176025 -17.94956055 8.29836426 -18.84521484 8.56274414 C-21 9 -21 9 -23 8 C-20.69 7.34 -18.38 6.68 -16 6 C-16 5.34 -16 4.68 -16 4 C-14.88625 3.87625 -13.7725 3.7525 -12.625 3.625 C-8.96896323 3.3534187 -8.96896323 3.3534187 -7 1 C-4.67724823 0.59952556 -2.34260643 0.2602896 0 0 Z " fill="#8E7EFE" transform="translate(216,145)"/>
<path d="M0 0 C0.598125 0.226875 1.19625 0.45375 1.8125 0.6875 C2.5 2.5 2.5 2.5 2.8125 4.6875 C1.625 6.5 1.625 6.5 -0.1875 7.6875 C-2.375 7.375 -2.375 7.375 -4.1875 6.6875 C-4.875 4.875 -4.875 4.875 -5.1875 2.6875 C-3.58493056 0.24147296 -2.95482043 -0.4221172 0 0 Z " fill="#8763FD" transform="translate(153.1875,172.3125)"/>
<path d="M0 0 C2.86697492 1.28519565 4.97607712 2.57129254 7 5 C7 5.66 7 6.32 7 7 C7.66 7 8.32 7 9 7 C12.74235659 11.05988988 14.33601268 14.99803289 14.3125 20.5 C14.23335319 22.00152805 14.13806703 23.50273977 14 25 C13.67 25 13.34 25 13 25 C12.95875 23.865625 12.9175 22.73125 12.875 21.5625 C12.05208374 14.93214613 7.88112381 9.68178347 3.1875 5.125 C1 3 1 3 0 0 Z " fill="#9A86EA" transform="translate(273,162)"/>
<path d="M0 0 C5.75 1.75 5.75 1.75 8 4 C8 4.66 8 5.32 8 6 C8.33 6.66 8.66 7.32 9 8 C6.04590299 6.62845496 3.55991624 5.01136276 1 3 C1 4.65 1 6.3 1 8 C0.34 8 -0.32 8 -1 8 C-0.67 9.65 -0.34 11.3 0 13 C-0.99 12.67 -1.98 12.34 -3 12 C-2.25749403 7.91621717 -1.17076699 3.98060777 0 0 Z " fill="#D3A3F8" transform="translate(147,165)"/>
<path d="M0 0 C7.42857143 1 7.42857143 1 11 2 C10.67 3.32 10.34 4.64 10 6 C5.8333396 5.52651586 3.07115285 4.95303159 0 2 C0 1.34 0 0.68 0 0 Z " fill="#F7D2FD" transform="translate(74,136)"/>
<path d="M0 0 C3.99455527 0.61454696 6.74466336 2.70646737 10 5 C9.13375 5.309375 9.13375 5.309375 8.25 5.625 C5.19664942 7.49093646 3.88605645 10.00832426 2 13 C1.67 13 1.34 13 1 13 C0.75 10.75 0.75 10.75 1 8 C3 5.6875 3 5.6875 5 4 C2.525 3.01 2.525 3.01 0 2 C0 1.34 0 0.68 0 0 Z " fill="#B57DFD" transform="translate(231,218)"/>
<path d="M0 0 C7.25 7.25 7.25 7.25 8 13 C7.34 13 6.68 13 6 13 C2.0056508 9.0056508 1.09219645 5.36996587 0 0 Z " fill="#A081EB" transform="translate(326,146)"/>
<path d="M0 0 C4.03321763 1.21934486 7.54269479 2.55954927 11 5 C11 5.66 11 6.32 11 7 C9.20620902 6.55005243 7.41501072 6.08975857 5.625 5.625 C4.62726563 5.36976563 3.62953125 5.11453125 2.6015625 4.8515625 C0 4 0 4 -2 2 C-1.34 2 -0.68 2 0 2 C0 1.34 0 0.68 0 0 Z " fill="#CF72F3" transform="translate(162,189)"/>
<path d="M0 0 C0.66 0.33 1.32 0.66 2 1 C1.67 1.66 1.34 2.32 1 3 C1.99 3 2.98 3 4 3 C4 3.66 4 4.32 4 5 C1.69 5.66 -0.62 6.32 -3 7 C-3.66 6.01 -4.32 5.02 -5 4 C-3.35 2.68 -1.7 1.36 0 0 Z " fill="#5860F7" transform="translate(187,160)"/>
<path d="M0 0 C1.65 0.33 3.3 0.66 5 1 C-0.00073317 3.80041057 -5.25451416 5.34821126 -11 5 C-9.4375 2.9375 -9.4375 2.9375 -7 1 C-3.25 1.25 -3.25 1.25 0 2 C0 1.34 0 0.68 0 0 Z " fill="#3F62ED" transform="translate(206,158)"/>
<path d="M0 0 C3.63 1.32 7.26 2.64 11 4 C10.67 4.66 10.34 5.32 10 6 C6.9375 6.625 6.9375 6.625 4 7 C3.34 6.01 2.68 5.02 2 4 C1.01 3.34 0.02 2.68 -1 2 C-0.67 1.34 -0.34 0.68 0 0 Z " fill="#A47BE9" transform="translate(300,128)"/>
<path d="M0 0 C5.61 0 11.22 0 17 0 C17 0.33 17 0.66 17 1 C12.05 1 7.1 1 2 1 C2 3.31 2 5.62 2 8 C1.67 7.01 1.34 6.02 1 5 C0.34 5 -0.32 5 -1 5 C-0.67 3.35 -0.34 1.7 0 0 Z " fill="#8485FB" transform="translate(245,202)"/>
<path d="M0 0 C0 1.65 0 3.3 0 5 C-4.625 7.125 -4.625 7.125 -8 6 C-3.375 0 -3.375 0 0 0 Z " fill="#6970F3" transform="translate(319,241)"/>
<path d="M0 0 C0.66 0.33 1.32 0.66 2 1 C-0.85276137 3.93200474 -3.65079784 6.64315404 -7 9 C-8.32 8.34 -9.64 7.68 -11 7 C-10.46375 6.7525 -9.9275 6.505 -9.375 6.25 C-6.10155465 4.52713402 -2.63127385 2.63127385 0 0 Z " fill="#6073E9" transform="translate(282,193)"/>
<path d="M0 0 C3 2 3 2 3.68359375 3.796875 C4.04479998 6.31194061 4.09592646 8.70958935 4.0625 11.25 C4.05347656 12.14203125 4.04445313 13.0340625 4.03515625 13.953125 C4.02355469 14.62859375 4.01195312 15.3040625 4 16 C3.67 16 3.34 16 3 16 C1.29915181 10.67067568 0.47986031 5.56890517 0 0 Z " fill="#9A86EC" transform="translate(341,174)"/>
<path d="M0 0 C-1.56020867 0.65134925 -3.12328579 1.29582964 -4.6875 1.9375 C-5.55761719 2.29714844 -6.42773438 2.65679687 -7.32421875 3.02734375 C-9.92919153 3.97426086 -12.24156587 4.71180539 -15 5 C-15.99 4.34 -16.98 3.68 -18 3 C-15.75376301 2.30030318 -13.50283586 1.61564957 -11.25 0.9375 C-9.99703125 0.55464844 -8.7440625 0.17179688 -7.453125 -0.22265625 C-4.3261992 -0.92656828 -2.90533954 -1.16653785 0 0 Z " fill="#6069FD" transform="translate(210,151)"/>
<path d="M0 0 C0 0.66 0 1.32 0 2 C0.99 2.33 1.98 2.66 3 3 C-2.94 3.495 -2.94 3.495 -9 4 C-9 3.34 -9 2.68 -9 2 C-3.375 0 -3.375 0 0 0 Z " fill="#F0CFFA" transform="translate(80,153)"/>
<path d="M0 0 C-10.2 6 -10.2 6 -15 6 C-15 5.34 -15 4.68 -15 4 C-13.06767179 3.13419713 -11.12892806 2.28270059 -9.1875 1.4375 C-8.10855469 0.96183594 -7.02960938 0.48617187 -5.91796875 -0.00390625 C-3 -1 -3 -1 0 0 Z " fill="#AD94F6" transform="translate(205,145)"/>
<path d="M0 0 C2.64 0 5.28 0 8 0 C7.01 0.33 6.02 0.66 5 1 C5 1.66 5 2.32 5 3 C6.98 3.66 8.96 4.32 11 5 C8.5332355 5.88336837 7.36140628 6.1312406 4.859375 5.22265625 C4.16328125 4.83980469 3.4671875 4.45695313 2.75 4.0625 C2.04359375 3.68222656 1.3371875 3.30195313 0.609375 2.91015625 C0.07828125 2.60980469 -0.4528125 2.30945313 -1 2 C-0.67 1.34 -0.34 0.68 0 0 Z " fill="#B879FD" transform="translate(193,201)"/>
<path d="M0 0 C1.65 0.33 3.3 0.66 5 1 C4.505 1.4125 4.01 1.825 3.5 2.25 C1.56613908 4.12202338 1.56613908 4.12202338 2 8 C0.68 7.67 -0.64 7.34 -2 7 C-1.125 2.25 -1.125 2.25 0 0 Z " fill="#9A71FD" transform="translate(163,179)"/>
<path d="M0 0 C2.97 0 5.94 0 9 0 C8.67 1.98 8.34 3.96 8 6 C6.68 5.67 5.36 5.34 4 5 C4 4.01 4 3.02 4 2 C2.68 1.67 1.36 1.34 0 1 C0 0.67 0 0.34 0 0 Z " fill="#5C73FC" transform="translate(250,203)"/>
<path d="M0 0 C4.83628305 0.99043705 9.47618873 1.95698846 14 4 C14 4.33 14 4.66 14 5 C10.7 4.67 7.4 4.34 4 4 C4 3.34 4 2.68 4 2 C2.68 1.67 1.36 1.34 0 1 C0 0.67 0 0.34 0 0 Z " fill="#917DFD" transform="translate(253,229)"/>
<path d="M0 0 C2.4375 0.8125 2.4375 0.8125 5 2 C5.33 2.99 5.66 3.98 6 5 C2.7 5.33 -0.6 5.66 -4 6 C-3.01 5.34 -2.02 4.68 -1 4 C-0.34 3.34 0.32 2.68 1 2 C0.67 1.34 0.34 0.68 0 0 Z " fill="#9586FC" transform="translate(136,176)"/>
<path d="M0 0 C4.31392226 0.4793247 6.16569547 1.7457985 9 5 C5.65626525 4.44271087 2.96687001 3.64826111 0 2 C0 1.34 0 0.68 0 0 Z " fill="#855DFA" transform="translate(198,202)"/>
<path d="M0 0 C1.32 0.33 2.64 0.66 4 1 C2.25 3.0625 2.25 3.0625 0 5 C-2.25 4.75 -2.25 4.75 -4 4 C-3.01 3.67 -2.02 3.34 -1 3 C-0.67 2.01 -0.34 1.02 0 0 Z " fill="#787FF5" transform="translate(173,166)"/>
<path d="M0 0 C0.99 0.33 1.98 0.66 3 1 C3 2.65 3 4.3 3 6 C2.01 6.33 1.02 6.66 0 7 C0 7.66 0 8.32 0 9 C-0.99 8.67 -1.98 8.34 -3 8 C-2.34 8 -1.68 8 -1 8 C-0.67 5.36 -0.34 2.72 0 0 Z " fill="#C593FE" transform="translate(156,173)"/>
<path d="M0 0 C1.98 0.99 1.98 0.99 4 2 C4 4.31 4 6.62 4 9 C1.18167487 7.59083743 0.97406539 5.92219617 0 3 C0 2.01 0 1.02 0 0 Z " fill="#A38CF0" transform="translate(337,165)"/>
<path d="M0 0 C-2.6855594 2.6855594 -5.37621328 3.06049974 -9 4 C-8.1875 2.0625 -8.1875 2.0625 -7 0 C-3.86650268 -1.04449911 -3.01031744 -0.93423645 0 0 Z " fill="#726CED" transform="translate(184,166)"/>
<path d="M0 0 C-3.68734758 2.45823172 -6.69699971 3.01242616 -11 4 C-10.67 3.01 -10.34 2.02 -10 1 C-6.78548731 -0.60725635 -3.56387464 -0.05748185 0 0 Z " fill="#8F8AFE" transform="translate(192,154)"/>
<path d="M0 0 C0.33 0.66 0.66 1.32 1 2 C-2.75 7.875 -2.75 7.875 -5 9 C-3.90931332 5.22454612 -3.0916909 2.52956528 0 0 Z " fill="#958AE7" transform="translate(333,229)"/>
<path d="M0 0 C2.475 0.99 2.475 0.99 5 2 C1.81237635 4.12508244 -0.26512223 4.5020163 -4 5 C-2.68 3.35 -1.36 1.7 0 0 Z " fill="#9995F1" transform="translate(176,155)"/>
<path d="M0 0 C0.625 1.875 0.625 1.875 1 4 C0.34 4.66 -0.32 5.32 -1 6 C-1.99 5.67 -2.98 5.34 -4 5 C-2.25 1.125 -2.25 1.125 0 0 Z " fill="#7A78ED" transform="translate(322,239)"/>
<path d="M0 0 C0.66 0.66 1.32 1.32 2 2 C1.19152271 3.16945792 0.37810888 4.33550461 -0.4375 5.5 C-0.88996094 6.1496875 -1.34242188 6.799375 -1.80859375 7.46875 C-2.20175781 7.9740625 -2.59492188 8.479375 -3 9 C-3.33 9 -3.66 9 -4 9 C-4.25 6.75 -4.25 6.75 -4 4 C-2 1.6875 -2 1.6875 0 0 Z " fill="#AF6FFC" transform="translate(236,222)"/>
<path d="M0 0 C-2.91765 1.9451 -4.62537285 2.45276317 -8 3 C-8 2.34 -8 1.68 -8 1 C-3.375 -1.125 -3.375 -1.125 0 0 Z " fill="#C89EE7" transform="translate(105,197)"/>
<path d="M0 0 C2.88437779 1.29299694 4.87219421 2.65941363 7 5 C6.67 5.99 6.34 6.98 6 8 C1.125 3.375 1.125 3.375 0 0 Z " fill="#8D79E0" transform="translate(273,162)"/>
</svg>
